<?xml version="1.0" standalone="no"?>
<!DOCTYPE svg PUBLIC "-//W3C//DTD SVG 20010904//EN"
 "http://www.w3.org/TR/2001/REC-SVG-20010904/DTD/svg10.dtd">
<svg version="1.0" xmlns="http://www.w3.org/2000/svg"
 width="232.000000pt" height="232.000000pt" viewBox="0 0 232.000000 232.000000"
 preserveAspectRatio="xMidYMid meet">
<metadata>
Created by potrace 1.14, written by Peter Selinger 2001-2017
</metadata>
<g transform="translate(0.000000,232.000000) scale(0.100000,-0.100000)"
fill="#000000" stroke="none">
<path d="M930 2239 c-76 -38 -167 -129 -220 -219 -38 -66 -45 -93 -56 -210
-11 -118 -11 -129 1 -157 17 -40 106 -86 165 -87 99 -2 157 81 260 374 46 128
51 152 46 202 -3 35 -14 71 -28 92 -20 31 -28 36 -64 36 -26 0 -64 -11 -104
-31z"/>
<path d="M1537 2169 c-31 -8 -48 -25 -110 -109 -23 -30 -65 -81 -94 -113 -68
-74 -153 -259 -153 -331 0 -62 86 -107 213 -109 71 -2 74 -1 153 49 110 70
119 78 169 159 53 87 53 87 59 217 l5 108 -32 42 c-50 65 -146 105 -210 87z"/>
<path d="M417 1673 c-2 -1 -12 -4 -23 -6 -40 -8 -70 -26 -91 -56 -13 -16 -23
-35 -23 -41 0 -5 -3 -10 -7 -10 -5 0 -16 -17 -25 -38 -34 -72 -57 -187 -63
-307 -5 -111 -4 -123 17 -165 32 -63 61 -65 142 -9 60 41 140 138 178 214 30
61 59 210 58 298 -1 66 -52 115 -126 121 -19 1 -36 1 -37 -1z"/>
<path d="M1789 1384 c-30 -14 -66 -41 -82 -59 -26 -32 -109 -95 -126 -95 -16
0 -75 -68 -93 -107 -16 -37 -17 -49 -7 -85 14 -56 64 -159 89 -186 11 -12 20
-25 20 -30 0 -16 44 -49 103 -77 64 -31 155 -38 183 -14 8 6 39 49 68 94 30
45 63 91 74 101 34 32 40 63 37 205 -3 128 -4 137 -32 184 -53 90 -136 114
-234 69z"/>
<path d="M961 1326 c-59 -17 -85 -32 -137 -76 -35 -30 -83 -84 -106 -120 -22
-35 -54 -78 -69 -95 -16 -16 -34 -43 -40 -60 -30 -80 -40 -88 -143 -105 -90
-14 -117 -39 -131 -118 -19 -109 -26 -267 -14 -322 4 -19 10 -57 13 -85 5 -44
13 -56 55 -96 41 -38 55 -46 78 -41 15 2 33 8 38 12 30 24 143 42 220 35 44
-3 107 -6 139 -6 48 1 73 -6 133 -34 41 -19 78 -35 83 -35 5 0 29 -17 53 -38
63 -55 106 -79 152 -87 22 -4 48 -9 58 -11 64 -11 169 109 219 250 15 43 36
92 46 110 33 56 33 73 -3 134 -37 64 -53 79 -147 145 -98 69 -107 94 -114 298
-8 252 -18 274 -150 329 -93 39 -140 42 -233 16z"/>
</g>
</svg>
